<svg width="414" height="896" viewBox="0 0 414 896" fill="none" xmlns="http://www.w3.org/2000/svg">
<g opacity="0.7">
<circle opacity="0.2" cx="377" cy="195" r="123" stroke="#F2723A" stroke-width="4" stroke-dasharray="16 16"/>
<circle cx="339" cy="47" r="114" fill="url(#paint0_linear_401_148)"/>
<path d="M510 35.5C510 119.171 442.171 187 358.5 187C274.829 187 207 119.171 207 35.5C207 -48.1711 274.829 -116 358.5 -116C442.171 -116 510 -48.1711 510 35.5Z" fill="url(#paint1_linear_401_148)"/>
<circle cx="128.771" cy="812.442" r="153.505" transform="rotate(9.10206 128.771 812.442)" fill="url(#paint2_linear_401_148)"/>
<circle cx="128" cy="813" r="204" transform="rotate(9.10206 128 813)" fill="url(#paint3_linear_401_148)"/>
<circle opacity="0.3" cx="-10.5" cy="698.5" r="167.5" stroke="#F2723A" stroke-width="4" stroke-dasharray="18 18"/>
</g>
<defs>
<linearGradient id="paint0_linear_401_148" x1="332" y1="288" x2="440" y2="132" gradientUnits="userSpaceOnUse">
<stop stop-color="#F2723A" stop-opacity="0.4"/>
<stop offset="1" stop-color="#FFD7E5" stop-opacity="0.1"/>
</linearGradient>
<linearGradient id="paint1_linear_401_148" x1="19.5" y1="-175" x2="195.5" y2="98" gradientUnits="userSpaceOnUse">
<stop stop-color="#F2723A" stop-opacity="0.3"/>
<stop offset="0.919127" stop-color="#FFBBD3" stop-opacity="0.02"/>
</linearGradient>
<linearGradient id="paint2_linear_401_148" x1="58.3195" y1="861.177" x2="147.773" y2="949.404" gradientUnits="userSpaceOnUse">
<stop stop-color="#F2723A" stop-opacity="0.24"/>
<stop offset="1" stop-color="#F2723A" stop-opacity="0"/>
</linearGradient>
<linearGradient id="paint3_linear_401_148" x1="-170.931" y1="811.29" x2="221.53" y2="1009.23" gradientUnits="userSpaceOnUse">
<stop stop-color="#F2723A" stop-opacity="0.2"/>
<stop offset="0.919127" stop-color="#F2723A" stop-opacity="0"/>
</linearGradient>
</defs>
</svg>
