<svg width="157" height="34" viewBox="0 0 157 34" fill="none" xmlns="http://www.w3.org/2000/svg">
<g clip-path="url(#clip0_401_178)">
<path d="M157 1.20203H131.968H126.417V6.02384V24.9248L107.559 1.20203H102.008V6.69698V8.47253V27.5606H82.9247V19.8333H98.146V14.3384H82.9247V6.69698H100.014V1.20203H77.1997V33.1414H107.559V9.62991L126.417 33.0556H131.968V6.02384H142.171V33.0556H147.042V6.02384H157V1.20203Z" fill="white"/>
<path d="M17.175 28.5049C14.0923 28.5049 11.1358 27.2927 8.95603 25.1351C6.77623 22.9775 5.55164 20.0512 5.55164 16.9998C5.55164 13.9485 6.77623 11.0221 8.95603 8.86453C11.1358 6.70692 14.0923 5.49478 17.175 5.49478C17.7932 5.49534 18.4104 5.54415 19.0208 5.64074C20.3149 3.93441 21.8888 2.45488 23.6771 1.26367C20.3755 -0.0726444 16.7355 -0.358302 13.2624 0.446357C9.78931 1.25102 6.65551 3.10606 4.29607 5.75395C1.93663 8.40184 0.468634 11.7112 0.0958932 15.2225C-0.276847 18.7338 0.464163 22.2729 2.21604 25.3484C3.96793 28.4239 6.64375 30.8831 9.87201 32.3848C13.1003 33.8864 16.7208 34.3559 20.2309 33.728C23.741 33.1001 26.9665 31.4061 29.4596 28.881C31.9527 26.356 33.5897 23.1253 34.1433 19.6374H28.4878C27.8873 22.1609 26.4433 24.4098 24.39 26.0193C22.3366 27.6288 19.7942 28.5047 17.175 28.5049Z" fill="white"/>
<path d="M79.7239 14.6835H62.0825V19.641H70.1286V26.1989C68.3557 27.517 66.2389 28.3056 64.028 28.4717C61.817 28.6379 59.6042 28.1746 57.6506 27.1365C55.697 26.0985 54.0841 24.529 53.0022 22.6133C51.9204 20.6975 51.4147 18.5154 51.5448 16.3245C51.6749 14.1335 52.4355 12.0251 53.7367 10.2481C55.0379 8.47099 56.8254 7.09937 58.8885 6.29506C60.9515 5.49075 63.2039 5.2873 65.3799 5.70872C67.556 6.13014 69.5648 7.15884 71.1695 8.67345L74.5576 4.29294C72.032 2.07067 68.9003 0.635239 65.5544 0.166368C62.2085 -0.302503 58.7973 0.216024 55.7477 1.65703C52.6982 3.09803 50.1459 5.39747 48.4103 8.26746C46.6748 11.1374 45.8331 14.4504 45.9908 17.7916C46.1484 21.1328 47.2984 24.3537 49.2966 27.0511C51.2948 29.7485 54.0526 31.8024 57.2245 32.9558C60.3965 34.1092 63.8417 34.3108 67.1289 33.5353C70.416 32.7598 73.399 31.0417 75.7043 28.5961V19.641H79.7239V14.6835Z" fill="white"/>
<path d="M34.3496 3.25828e-08C31.2591 -0.000189332 28.2258 0.825034 25.5696 2.38866C22.9133 3.95229 20.7326 6.19637 19.2572 8.88431C17.7818 11.5722 17.0665 14.6044 17.1867 17.6611C17.3069 20.7178 18.2581 23.6858 19.9401 26.2521L19.9644 26.2985C21.7708 25.7488 23.3777 24.6932 24.5912 23.2591C24.5148 23.1217 24.4298 22.9861 24.3379 22.8504C22.8731 20.3972 22.3802 17.4932 22.9547 14.7009C23.5292 11.9086 25.1301 9.42672 27.4475 7.73588C29.7648 6.04505 32.6337 5.26561 35.4983 5.54854C38.363 5.83147 41.0197 7.15664 42.9538 9.26737C44.8879 11.3781 45.9619 14.1242 45.9676 16.9738C45.9733 19.8234 44.9105 22.5737 42.9849 24.6921C41.0593 26.8104 38.408 28.1461 35.5444 28.4403C32.6809 28.7345 29.809 27.9664 27.4848 26.2847C25.8229 27.2395 23.7012 28.4261 22.3584 29.173C24.3742 31.118 26.842 32.5428 29.5448 33.3219C32.2476 34.101 35.1024 34.2106 37.858 33.641C40.6136 33.0714 43.1855 31.8401 45.3473 30.0554C47.5092 28.2708 49.1947 25.9875 50.2556 23.4065C51.3165 20.8256 51.7201 18.0261 51.4311 15.2544C51.142 12.4827 50.1691 9.82387 48.5979 7.51184C47.0268 5.19981 44.9056 3.30549 42.421 1.9956C39.9364 0.685704 37.1646 0.00040048 34.3496 3.25828e-08Z" fill="white"/>
</g>
<defs>
<clipPath id="clip0_401_178">
<rect width="157" height="34" fill="white"/>
</clipPath>
</defs>
</svg>
