<svg width="294" height="64" viewBox="0 0 294 64" fill="none" xmlns="http://www.w3.org/2000/svg">
<path d="M293.997 2.2656H247.122H236.726V11.342V46.9201L201.413 2.2656H191.018V12.609V15.9513V51.8818H155.282V37.3363H183.786V26.9929H155.282V12.609H187.285V2.2656H144.562V62.3868H201.413V18.1298L236.726 62.2252H247.122V11.342H266.227V62.2252H275.35V11.342H293.997V2.2656Z" fill="#FF671E"/>
<path d="M32.1586 53.6595C26.3859 53.6595 20.8496 51.3778 16.7677 47.3164C12.6858 43.255 10.3926 37.7466 10.3926 32.0029C10.3926 26.2592 12.6858 20.7508 16.7677 16.6894C20.8496 12.628 26.3859 10.3463 32.1586 10.3463C33.3162 10.3474 34.472 10.4393 35.6152 10.6211C38.0384 7.40916 40.9857 4.62417 44.3345 2.38189C38.1519 -0.133523 31.3356 -0.671231 24.8319 0.843421C18.3281 2.35807 12.4597 5.84993 8.04141 10.8342C3.6231 15.8184 0.874112 22.0478 0.176113 28.6573C-0.521885 35.2669 0.86574 41.9287 4.14633 47.7178C7.42693 53.507 12.4377 58.1362 18.483 60.9628C24.5283 63.7894 31.3081 64.6731 37.8811 63.4912C44.4542 62.3093 50.4943 59.1205 55.1629 54.3675C59.8316 49.6145 62.897 43.5332 63.9337 36.9678H53.3431C52.2186 41.7179 49.5146 45.951 45.6695 48.9807C41.8243 52.0104 37.0634 53.6591 32.1586 53.6595Z" fill="#FF671E"/>
<path d="M149.289 27.6426H116.253V36.9743H131.32V49.3185C128 51.7996 124.037 53.2841 119.896 53.5968C115.756 53.9095 111.612 53.0375 107.954 51.0835C104.296 49.1295 101.275 46.1752 99.2494 42.5691C97.2235 38.963 96.2765 34.8555 96.5202 30.7314C96.7639 26.6073 98.188 22.6385 100.625 19.2934C103.061 15.9483 106.409 13.3665 110.272 11.8525C114.135 10.3385 118.353 9.95553 122.428 10.7488C126.503 11.542 130.265 13.4784 133.27 16.3294L139.614 8.08379C134.885 3.90068 129.02 1.1987 122.755 0.316116C116.489 -0.566464 110.101 0.409585 104.391 3.12206C98.68 5.83454 93.9005 10.1629 90.6505 15.5652C87.4005 20.9675 85.8245 27.2038 86.1197 33.4931C86.4149 39.7824 88.5683 45.8453 92.3102 50.9227C96.0521 56.0001 101.216 59.8664 107.156 62.0375C113.096 64.2086 119.548 64.588 125.703 63.1282C131.859 61.6684 137.445 58.4343 141.762 53.8309V36.9743H149.289V27.6426Z" fill="#FF671E"/>
<path d="M64.3202 0.00297553C58.5329 0.00261907 52.8528 1.55598 47.8787 4.49928C42.9046 7.44257 38.8208 11.6667 36.058 16.7264C33.2952 21.786 31.9558 27.4936 32.1808 33.2475C32.4059 39.0013 34.1872 44.588 37.3368 49.4187L37.3823 49.506C40.765 48.4713 43.7742 46.4842 46.0465 43.7848C45.9035 43.5262 45.7444 43.2709 45.5722 43.0155C42.8293 38.3977 41.9063 32.9314 42.9821 27.6753C44.0579 22.4192 47.0558 17.7474 51.3953 14.5646C55.7348 11.3819 61.107 9.91472 66.4714 10.4473C71.8358 10.9799 76.8108 13.4743 80.4326 17.4474C84.0545 21.4206 86.0655 26.5897 86.0763 31.9537C86.087 37.3176 84.0967 42.4947 80.4908 46.4822C76.8849 50.4697 71.92 52.9838 66.5577 53.5377C61.1955 54.0915 55.8174 52.6457 51.4652 49.4801C48.353 51.2773 44.3799 53.5109 41.8655 54.9169C45.6402 58.5781 50.2615 61.26 55.3227 62.7266C60.3839 64.1932 65.7299 64.3994 70.8901 63.3272C76.0502 62.2551 80.8664 59.9373 84.9147 56.5779C88.9631 53.2186 92.1194 48.9206 94.106 44.0623C96.0926 39.2041 96.8485 33.9344 96.3072 28.7171C95.7659 23.4999 93.944 18.495 91.0019 14.1429C88.0597 9.79085 84.0875 6.22507 79.4348 3.75939C74.7822 1.29371 69.5917 0.00372931 64.3202 0.00297553Z" fill="#FF671E"/>
</svg>
